<svg width="43" height="42" viewBox="0 0 43 42" fill="none" xmlns="http://www.w3.org/2000/svg">
<rect x="0.5" width="42" height="42" rx="21" fill="#FF9000" fill-opacity="0.18"/>
<path d="M22.0508 31.6841L22.0664 32.0698L22.0625 32.0854L22.0518 32.1001L21.958 32.1665L21.9473 32.1704L21.9336 32.1665L21.8399 32.1001L21.8311 32.0884L21.8262 32.0698L21.8418 31.6831L21.8448 31.6743C21.8496 31.6683 21.8576 31.666 21.8672 31.6685L21.9307 31.7017L21.9434 31.7046L21.9619 31.7017L22.0264 31.6694L22.0371 31.6675C22.0442 31.6688 22.0484 31.6746 22.0508 31.6841ZM21.6289 31.5679L21.7959 31.6509L21.8047 31.6597L21.8076 31.6704L21.791 32.0591L21.7881 32.0688L21.7793 32.0767L21.5977 32.1606L21.584 32.1626C21.5744 32.159 21.569 32.151 21.5684 32.1401L21.5996 31.5854L21.6045 31.5728C21.6071 31.5689 21.6117 31.566 21.6162 31.5649C21.6207 31.5641 21.6251 31.5655 21.6289 31.5679ZM22.2754 31.5659C22.2844 31.5677 22.29 31.5742 22.293 31.5854L22.3242 32.1401L22.3203 32.1528C22.3143 32.1607 22.3054 32.1637 22.294 32.1606L22.1123 32.0776L22.1055 32.0698L22.1006 32.0591L22.085 31.6704L22.0869 31.6606L22.0967 31.6519L22.2627 31.5679L22.2754 31.5659ZM24.0576 27.8188C23.8707 28.3477 23.5245 28.8057 23.0664 29.1294C22.6083 29.4531 22.061 29.6268 21.5 29.6265C20.9391 29.6267 20.3917 29.4531 19.9336 29.1294C19.4756 28.8057 19.1294 28.3477 18.9424 27.8188H24.0576ZM21.5 12.4546C23.1779 12.4546 24.7872 13.1207 25.9737 14.3071C27.1601 15.4936 27.8272 17.1028 27.8272 18.7808V21.9692C27.8273 22.1095 27.86 22.2481 27.9229 22.3735L29.4737 25.4761C29.5494 25.6276 29.5848 25.7961 29.5772 25.9653C29.5696 26.1346 29.5188 26.2997 29.4297 26.4438C29.3406 26.5879 29.2163 26.7071 29.0684 26.7896C28.9204 26.872 28.7534 26.9156 28.584 26.9155H14.416C14.2466 26.9155 14.0797 26.8721 13.9317 26.7896C13.7837 26.7071 13.6594 26.5879 13.5703 26.4438C13.4812 26.2997 13.4305 26.1346 13.4229 25.9653C13.4153 25.7961 13.4506 25.6276 13.5264 25.4761L15.0782 22.3735C15.1407 22.2481 15.174 22.1094 15.1739 21.9692V18.7808C15.1739 17.1029 15.84 15.4936 17.0264 14.3071C18.2128 13.1207 19.8221 12.4546 21.5 12.4546Z" fill="#FF9000"/>
</svg>
