<svg width="42" height="42" viewBox="0 0 42 42" fill="none" xmlns="http://www.w3.org/2000/svg">
<rect width="42" height="42" rx="21" fill="#034833" fill-opacity="0.18"/>
<path d="M25.4873 12.0249C25.9828 12.025 26.3848 12.4268 26.3848 12.9224V13.8208H27.2822C28.2713 13.821 29.0771 14.6266 29.0771 15.6157V28.1802C29.0769 29.1691 28.2711 29.9749 27.2822 29.9751H14.7178C13.7288 29.975 12.9231 29.1691 12.9229 28.1802V15.6157C12.9229 14.6266 13.7286 13.8209 14.7178 13.8208H15.6152V12.9224C15.6152 12.4267 16.0171 12.0249 16.5127 12.0249C17.0083 12.0249 17.4102 12.4267 17.4102 12.9224V13.8208H24.5898V12.9224C24.5898 12.4267 24.9917 12.0249 25.4873 12.0249ZM14.7178 28.1802H27.2822V18.3081H14.7188L14.7178 15.6157V28.1802ZM22.8867 23.6978C23.3391 23.7438 23.6924 24.1257 23.6924 24.5903C23.6923 25.0548 23.3391 25.4368 22.8867 25.4829L22.7949 25.4878H16.5127C16.0172 25.4877 15.6153 25.0858 15.6152 24.5903C15.6152 24.0947 16.0171 23.6929 16.5127 23.6929H22.7949L22.8867 23.6978ZM25.5791 20.1079C26.0315 20.154 26.3848 20.5359 26.3848 21.0005C26.3847 21.465 26.0314 21.847 25.5791 21.8931L25.4873 21.8979H16.5127C16.0171 21.8979 15.6153 21.496 15.6152 21.0005C15.6152 20.5049 16.0171 20.103 16.5127 20.103H25.4873L25.5791 20.1079Z" fill="#034833"/>
</svg>
