<svg width="42" height="42" viewBox="0 0 42 42" fill="none" xmlns="http://www.w3.org/2000/svg">
<rect width="42" height="42" rx="21" fill="#034833" fill-opacity="0.18"/>
<path d="M25.2505 13.7966L26.8647 13.2468L28.3374 17.5544H29.0767V26.7849H12.9233V17.5544H13.3159V17.5466L13.814 17.5515L22.8052 10.3689L25.2505 13.7966ZM15.8696 19.0925C15.7548 19.4172 15.5683 19.7124 15.3247 19.9558C15.0812 20.1991 14.786 20.3852 14.4614 20.4998V23.8376C14.7863 23.9527 15.0819 24.1389 15.3257 24.3826C15.5694 24.6261 15.7553 24.9212 15.8706 25.2458H26.1313C26.2461 24.9212 26.4318 24.626 26.6753 24.3826C26.9188 24.1391 27.2138 23.9533 27.5386 23.8386V20.4998C27.2138 20.3851 26.9188 20.1993 26.6753 19.9558C26.4318 19.7123 26.246 19.4173 26.1313 19.0925H15.8696ZM20.9995 19.4773C21.7135 19.4773 22.3989 19.7605 22.9038 20.2654C23.4087 20.7703 23.6919 21.4556 23.6919 22.1697C23.6918 22.8835 23.4086 23.5682 22.9038 24.073C22.3989 24.5779 21.7136 24.8621 20.9995 24.8621C20.2856 24.862 19.601 24.5778 19.0962 24.073C18.5914 23.5682 18.3072 22.8836 18.3071 22.1697C18.3071 21.4556 18.5913 20.7703 19.0962 20.2654C19.601 19.7607 20.2857 19.4774 20.9995 19.4773ZM20.9995 21.0154C20.6937 21.0155 20.4004 21.1371 20.1841 21.3533C19.9677 21.5697 19.8462 21.8637 19.8462 22.1697C19.8463 22.4756 19.9678 22.7688 20.1841 22.9851C20.4004 23.2014 20.6936 23.3229 20.9995 23.323C21.3055 23.323 21.5995 23.2015 21.8159 22.9851C22.0321 22.7688 22.1537 22.4755 22.1538 22.1697C22.1538 21.8637 22.0323 21.5697 21.8159 21.3533C21.5995 21.1369 21.3055 21.0154 20.9995 21.0154ZM24.7437 15.5955L18.9976 17.5544H26.7114L25.9136 15.2205L24.7437 15.5955ZM17.8003 16.3367L23.731 14.3152L22.4966 12.5847L17.8003 16.3367Z" fill="#034833"/>
</svg>
