<svg width="42" height="42" viewBox="0 0 42 42" fill="none" xmlns="http://www.w3.org/2000/svg">
<rect width="42" height="42" rx="21" fill="#034833" fill-opacity="0.18"/>
<path d="M21 12.9231C25.4609 12.9231 29.0769 16.5391 29.0769 21C29.0769 25.4609 25.4609 29.0769 21 29.0769C16.5391 29.0769 12.9231 25.4609 12.9231 21C12.9231 16.5391 16.5391 12.9231 21 12.9231ZM21 16.1539C20.7858 16.1539 20.5804 16.239 20.4289 16.3904C20.2774 16.5419 20.1923 16.7473 20.1923 16.9616V21C20.1924 21.2142 20.2775 21.4196 20.429 21.5711L22.8521 23.9941C23.0044 24.1413 23.2084 24.2227 23.4202 24.2208C23.632 24.219 23.8345 24.134 23.9843 23.9843C24.134 23.8345 24.219 23.632 24.2208 23.4202C24.2227 23.2084 24.1413 23.0044 23.9941 22.8521L21.8077 20.6656V16.9616C21.8077 16.7473 21.7226 16.5419 21.5711 16.3904C21.4197 16.239 21.2142 16.1539 21 16.1539Z" fill="#034833"/>
</svg>
