<svg width="42" height="42" viewBox="0 0 42 42" fill="none" xmlns="http://www.w3.org/2000/svg">
<rect width="42" height="42" rx="21" fill="#034833" fill-opacity="0.18"/>
<g clip-path="url(#clip0_1_804)">
<path d="M22.5145 20.4948C22.5143 20.8966 22.3546 21.2819 22.0704 21.5659C21.7862 21.8499 21.4008 22.0094 20.999 22.0093C20.5973 22.0091 20.212 21.8494 19.928 21.5652C19.644 21.281 19.4845 20.8956 19.4846 20.4938C19.4848 20.092 19.6445 19.7068 19.9287 19.4228C20.2129 19.1387 20.5983 18.9793 21.0001 18.9794C21.4018 18.9795 21.7871 19.1393 22.0711 19.4235C22.3551 19.7077 22.5146 20.0931 22.5145 20.4948ZM27.3303 16.9612H24.7659C24.3027 16.9612 23.8584 17.1452 23.5309 17.4728C23.2033 17.8003 23.0193 18.2446 23.0193 18.7078V22.0093C23.0193 22.277 23.1257 22.5338 23.315 22.7232C23.5043 22.9125 23.7611 23.0189 24.0289 23.0189V29.0766H28.0674V23.0189C28.3351 23.0189 28.5919 22.9125 28.7813 22.7232C28.9706 22.5338 29.077 22.277 29.077 22.0093V18.7078C29.077 18.2446 28.893 17.8003 28.5654 17.4728C28.2378 17.1452 27.7936 16.9612 27.3303 16.9612Z" fill="#034833"/>
<path d="M28.0671 14.9425C28.0732 15.2114 28.0255 15.4788 27.9268 15.729C27.8281 15.9792 27.6804 16.2072 27.4924 16.3995C27.3044 16.5919 27.0799 16.7447 26.832 16.8491C26.5841 16.9535 26.3178 17.0073 26.0489 17.0073C25.7799 17.0074 25.5136 16.9537 25.2657 16.8495C25.0177 16.7452 24.7931 16.5925 24.605 16.4002C24.4169 16.208 24.2691 15.9801 24.1703 15.7299C24.0715 15.4797 24.0237 15.2124 24.0296 14.9435C24.0413 14.4159 24.259 13.9138 24.6362 13.5448C25.0135 13.1757 25.5201 12.969 26.0479 12.9689C26.5756 12.9687 27.0824 13.1752 27.4598 13.5441C27.8372 13.9129 28.0552 14.4149 28.0671 14.9425ZM17.2339 17.9713H14.6695C14.44 17.9714 14.2129 18.0166 14.0009 18.1045C13.789 18.1923 13.5964 18.3211 13.4342 18.4834C13.272 18.6457 13.1434 18.8383 13.0557 19.0503C12.9679 19.2623 12.9228 19.4895 12.9229 19.7189C12.9229 19.9484 12.9682 20.1756 13.056 20.3875C13.1439 20.5995 13.2727 20.792 13.4349 20.9542C13.5972 21.1164 13.7899 21.245 14.0019 21.3328C14.2139 21.4205 14.4411 21.4656 14.6705 21.4656C15.1339 21.4654 15.5782 21.2812 15.9058 20.9535C16.2333 20.6257 16.4173 20.1813 16.4171 19.7179C16.417 19.2546 16.2328 18.8102 15.905 18.4827C15.5773 18.1551 15.1329 17.9712 14.6695 17.9713C14.2063 17.9713 13.7618 18.1558 13.4342 18.4834C13.1067 18.8109 12.9229 19.2557 12.9229 19.7189L12.9229 22.0098C12.9229 22.2775 13.0292 22.5343 13.2186 22.7237C13.4079 22.913 13.6647 23.0194 13.9325 23.0194L12.9229 26.0482H13.9325V29.0771H17.9709V26.0482H18.9805L17.9709 23.0194C18.2387 23.0194 18.4955 22.913 18.6848 22.7237C18.8742 22.5343 18.9805 22.2775 18.9805 22.0098V19.7179C18.9805 19.4886 18.9354 19.2614 18.8476 19.0495C18.7598 18.8376 18.6312 18.6451 18.469 18.4829C18.3068 18.3207 18.1142 18.192 17.9023 18.1043C17.6904 18.0165 17.4633 17.9713 17.2339 17.9713Z" fill="#034833"/>
<path d="M17.9715 15.9525C17.9776 16.2214 17.9299 16.4888 17.8312 16.739C17.7325 16.9892 17.5848 17.2172 17.3968 17.4095C17.2088 17.6019 16.9843 17.7547 16.7364 17.8591C16.4885 17.9635 16.2222 18.0173 15.9533 18.0173C15.6843 18.0174 15.418 17.9637 15.1701 17.8595C14.9221 17.7552 14.6975 17.6025 14.5094 17.4102C14.3213 17.218 14.1735 16.9901 14.0747 16.7399C13.9759 16.4898 13.9281 16.2224 13.934 15.9535C13.9457 15.4259 14.1634 14.9238 14.5406 14.5548C14.9178 14.1857 15.4245 13.979 15.9523 13.9789C16.48 13.9787 16.9868 14.1852 17.3642 14.5541C17.7416 14.9229 17.9595 15.4249 17.9715 15.9525ZM19.9907 26.0486V29.0775H22.0099V26.0486C22.2777 26.0486 22.5345 25.9422 22.7238 25.7529C22.9132 25.5636 23.0196 25.3068 23.0196 25.039V23.4842C23.0196 23.0933 22.8643 22.7183 22.5878 22.4419C22.3114 22.1655 21.9365 22.0102 21.5455 22.0102H20.4551C20.0642 22.0102 19.6893 22.1655 19.4128 22.4419C19.1364 22.7183 18.9811 23.0933 18.9811 23.4842V25.039C18.9811 25.3068 19.0875 25.5636 19.2768 25.7529C19.4661 25.9422 19.7229 26.0486 19.9907 26.0486Z" fill="#034833"/>
</g>
<defs>
<clipPath id="clip0_1_804">
<rect width="16.1538" height="16.1538" fill="white" transform="translate(12.9231 12.9231)"/>
</clipPath>
</defs>
</svg>
