<svg width="43" height="42" viewBox="0 0 43 42" fill="none" xmlns="http://www.w3.org/2000/svg">
<rect x="0.5" width="42" height="42" rx="21" fill="#FF9000" fill-opacity="0.18"/>
<path fill-rule="evenodd" clip-rule="evenodd" d="M25.8671 14.2674C25.7223 14.2674 25.5834 14.2099 25.4811 14.1075C25.3787 14.0051 25.3212 13.8662 25.3212 13.7215C25.3212 13.5767 25.3787 13.4378 25.4811 13.3354C25.5834 13.2331 25.7223 13.1755 25.8671 13.1755H28.7786C28.8865 13.1756 28.992 13.2077 29.0817 13.2677C29.1714 13.3277 29.2413 13.4129 29.2826 13.5126C29.3238 13.6123 29.3346 13.722 29.3136 13.8278C29.2926 13.9337 29.2407 14.0309 29.1644 14.1072L27.1846 16.0871H28.7786C28.9234 16.0871 29.0623 16.1446 29.1647 16.247C29.267 16.3494 29.3246 16.4882 29.3246 16.633C29.3246 16.7778 29.267 16.9167 29.1647 17.019C29.0623 17.1214 28.9234 17.1789 28.7786 17.1789H25.8671C25.7592 17.1788 25.6537 17.1468 25.564 17.0868C25.4743 17.0268 25.4045 16.9416 25.3632 16.8419C25.3219 16.7422 25.3111 16.6325 25.3321 16.5266C25.3531 16.4208 25.405 16.3236 25.4813 16.2472L27.4612 14.2674H25.8671ZM22.5916 18.6347C22.4468 18.6347 22.3079 18.5772 22.2056 18.4748C22.1032 18.3724 22.0457 18.2336 22.0457 18.0888C22.0457 17.944 22.1032 17.8052 22.2056 17.7028C22.3079 17.6004 22.4468 17.5429 22.5916 17.5429H24.7752C24.8831 17.543 24.9886 17.575 25.0783 17.635C25.168 17.695 25.2379 17.7803 25.2792 17.88C25.3204 17.9796 25.3312 18.0893 25.3102 18.1952C25.2892 18.301 25.2373 18.3982 25.161 18.4746L23.9091 19.7266H24.7752C24.92 19.7266 25.0589 19.7841 25.1613 19.8864C25.2636 19.9888 25.3212 20.1277 25.3212 20.2725C25.3212 20.4173 25.2636 20.5561 25.1613 20.6585C25.0589 20.7609 24.92 20.8184 24.7752 20.8184H22.5916C22.4837 20.8183 22.3782 20.7862 22.2885 20.7262C22.1988 20.6662 22.1289 20.581 22.0877 20.4813C22.0464 20.3816 22.0356 20.2719 22.0566 20.1661C22.0776 20.0603 22.1295 19.963 22.2058 19.8867L23.4578 18.6347H22.5916Z" fill="#FF9000"/>
<path d="M21.4998 28.2791C25.5199 28.2791 28.7787 25.0204 28.7787 21.0002C28.7787 20.6632 28.2735 20.6072 28.0996 20.8961C27.7285 21.5107 27.2225 22.0328 26.6198 22.4229C26.0171 22.8129 25.3335 23.0607 24.6209 23.1474C23.9082 23.2342 23.1852 23.1576 22.5065 22.9235C21.8278 22.6894 21.2113 22.304 20.7037 21.7963C20.196 21.2887 19.8106 20.6722 19.5765 19.9935C19.3424 19.3148 19.2658 18.5918 19.3526 17.8791C19.4393 17.1665 19.6871 16.4829 20.0772 15.8802C20.4672 15.2775 20.9893 14.7715 21.6039 14.4004C21.8929 14.2257 21.8368 13.7213 21.4998 13.7213C17.4797 13.7213 14.2209 16.9801 14.2209 21.0002C14.2209 25.0204 17.4797 28.2791 21.4998 28.2791Z" fill="#FF9000"/>
</svg>
