<svg width="43" height="42" viewBox="0 0 43 42" fill="none" xmlns="http://www.w3.org/2000/svg">
<rect x="0.5" width="42" height="42" rx="21" fill="#FF9000" fill-opacity="0.18"/>
<path d="M23.6833 22.4563C21.7399 22.4563 17.8602 23.4244 17.8602 25.3678V26.8236H29.5065V25.3678C29.5065 23.4244 25.6268 22.4563 23.6833 22.4563ZM17.1323 19.5447V17.361H15.6765V19.5447H13.4929V21.0005H15.6765V23.1842H17.1323V21.0005H19.316V19.5447M23.6833 21.0005C24.4555 21.0005 25.1961 20.6937 25.7421 20.1477C26.2881 19.6017 26.5949 18.8611 26.5949 18.0889C26.5949 17.3167 26.2881 16.5762 25.7421 16.0301C25.1961 15.4841 24.4555 15.1774 23.6833 15.1774C22.9111 15.1774 22.1706 15.4841 21.6245 16.0301C21.0785 16.5762 20.7718 17.3167 20.7718 18.0889C20.7718 18.8611 21.0785 19.6017 21.6245 20.1477C22.1706 20.6937 22.9111 21.0005 23.6833 21.0005Z" fill="#FF9000"/>
</svg>
