<svg width="43" height="42" viewBox="0 0 43 42" fill="none" xmlns="http://www.w3.org/2000/svg">
<rect x="0.5" width="42" height="42" rx="21" fill="#FF9000" fill-opacity="0.18"/>
<path d="M21.4998 13.7213C17.4862 13.7213 14.2209 16.9866 14.2209 21.0002C14.2209 25.0138 17.4862 28.2791 21.4998 28.2791C25.5134 28.2791 28.7787 25.0138 28.7787 21.0002C28.7787 16.9866 25.5134 13.7213 21.4998 13.7213ZM24.0423 18.8165C24.1874 18.8128 24.3318 18.8382 24.467 18.8912C24.6022 18.9442 24.7253 19.0237 24.8293 19.1251C24.9332 19.2264 25.0158 19.3476 25.0722 19.4814C25.1286 19.6151 25.1576 19.7588 25.1575 19.904C25.1575 20.0492 25.1284 20.1929 25.0719 20.3266C25.0154 20.4604 24.9328 20.5815 24.8288 20.6828C24.7248 20.784 24.6015 20.8635 24.4663 20.9164C24.3311 20.9693 24.1867 20.9946 24.0416 20.9908C23.7581 20.9833 23.4888 20.8655 23.291 20.6623C23.0932 20.4592 22.9825 20.1868 22.9826 19.9033C22.9827 19.6198 23.0935 19.3475 23.2915 19.1445C23.4894 18.9414 23.7589 18.8238 24.0423 18.8165ZM18.9522 18.8165C19.0956 18.8166 19.2376 18.8449 19.3701 18.8998C19.5026 18.9548 19.623 19.0352 19.7244 19.1367C19.8258 19.2382 19.9062 19.3586 19.961 19.4911C20.0159 19.6236 20.0441 19.7657 20.044 19.9091C20.044 20.0525 20.0157 20.1946 19.9607 20.3271C19.9058 20.4595 19.8253 20.5799 19.7239 20.6813C19.6224 20.7827 19.502 20.8631 19.3694 20.9179C19.2369 20.9728 19.0949 21.001 18.9514 21.0009C18.6618 21.0009 18.384 20.8857 18.1793 20.6808C17.9745 20.4759 17.8595 20.1981 17.8596 19.9084C17.8597 19.6187 17.9749 19.3409 18.1798 19.1362C18.3847 18.9314 18.6625 18.8165 18.9522 18.8165ZM21.4998 25.3676C18.5882 25.3676 17.8603 22.456 17.8603 22.456H25.1392C25.1392 22.456 24.4114 25.3676 21.4998 25.3676Z" fill="#FF9000"/>
</svg>
