<svg width="242" height="70" viewBox="0 0 242 70" fill="none" xmlns="http://www.w3.org/2000/svg">
<rect width="242" height="70" rx="35" fill="white"/>
<rect x="30.5" y="13" width="44" height="44" rx="12.2222" fill="white"/>
<path d="M39.0645 36.1751C40.0527 35.8087 41.1242 35.727 42.1563 35.9397C43.1884 36.1525 44.1402 36.6509 44.9034 37.3782C45.2108 37.6711 45.4807 37.998 45.713 38.3489C46.3415 37.5963 47.154 37.0177 48.0753 36.676C49.0635 36.3097 50.1349 36.228 51.1671 36.4407C52.1991 36.6534 53.1509 37.152 53.9142 37.8792C54.5582 38.493 55.044 39.2503 55.339 40.0852H55.6671C56.6632 40.0853 57.6183 40.4817 58.3224 41.1868C59.0264 41.8919 59.4219 42.8482 59.422 43.845C59.4219 44.8419 59.0265 45.799 58.3224 46.5042C57.6183 47.2091 56.6631 47.6056 55.6671 47.6057H50.0352C49.1571 47.6064 48.1194 47.612 47.1749 47.0667C47.0041 47.0905 46.8308 47.1038 46.6563 47.1038H41.0245C39.971 47.1045 38.9383 46.8097 38.044 46.2522C37.1496 45.6945 36.4292 44.8964 35.9649 43.9495C35.5007 43.0025 35.3108 41.9442 35.4171 40.8948C35.5234 39.8453 35.9218 38.8463 36.5665 38.012C37.2112 37.1779 38.0767 36.5415 39.0645 36.1751ZM50.9142 37.6682C50.112 37.5029 49.2789 37.5661 48.5108 37.8508C47.743 38.1356 47.0698 38.6308 46.5685 39.2796C46.4941 39.3757 46.3963 39.4423 46.2901 39.4817C46.3029 39.5158 46.3161 39.5498 46.3282 39.5842H46.6563C47.6525 39.5843 48.6075 39.9806 49.3116 40.6858C50.0158 41.391 50.4112 42.3471 50.4112 43.344C50.4112 44.3409 50.0157 45.297 49.3116 46.0022C49.1993 46.1147 49.0794 46.2183 48.9552 46.3147C49.2793 46.3462 49.6352 46.3521 50.0343 46.3518H55.6671C56.3301 46.3517 56.9664 46.0882 57.4356 45.6184C57.9049 45.1484 58.169 44.5101 58.169 43.845C58.1689 43.18 57.9048 42.5424 57.4356 42.0725C56.9664 41.6026 56.3302 41.3392 55.6671 41.3391H54.878C54.5924 41.3389 54.3429 41.145 54.2716 40.8684C54.0667 40.0738 53.6433 39.3529 53.0499 38.7874C52.4564 38.2218 51.7163 37.8336 50.9142 37.6682ZM50.5948 23.6165C50.7155 23.6197 51.3645 23.8991 52.0382 24.2376C53.1925 24.8178 53.3109 24.8416 54.0479 24.6438C54.7386 24.4585 54.8643 24.4711 55.1153 24.7503C55.2716 24.9242 55.4003 25.2467 55.4005 25.4671C55.4005 25.9113 55.5441 25.9471 56.3448 25.6995C57.1398 25.4538 57.5202 25.6491 57.6632 26.3762C57.7671 26.9044 57.9591 27.1023 58.7374 27.4846C59.2587 27.7406 59.7926 27.9503 59.9239 27.9504C60.0565 27.9497 61.061 27.4776 62.1563 26.9006C64.43 25.7028 65.2243 25.4029 66.752 25.1672C68.092 24.9607 69.3993 25.2031 69.5909 25.6936C69.6637 25.8798 69.5388 26.3664 69.3136 26.7747C68.6094 28.0499 67.3422 29.0132 64.7061 30.2786L62.2286 31.468L62.2315 32.4426C62.2341 33.3645 62.2748 33.4391 62.9786 33.8098C63.8985 34.2945 63.9118 34.5595 63.045 35.1526L62.3663 35.6165L63.045 36.0481C63.8696 36.5729 63.894 36.8404 63.1602 37.3098C62.6144 37.659 62.6016 37.7094 62.7413 38.9641L62.8858 40.259L62.0079 40.6233C61.5252 40.8235 60.9897 40.9631 60.8185 40.9338C60.6285 40.9 60.1447 39.9978 59.5792 38.6243C58.6202 36.2947 57.3635 33.8482 57.1319 33.8587C57.0575 33.8636 55.751 34.3908 54.2267 35.0305L52.5362 35.7385C51.5636 35.4536 50.5377 35.3784 49.5274 35.5217C48.8783 35.6139 48.2476 35.7952 47.6534 36.0569C46.91 35.0099 45.8991 34.1796 44.7237 33.6585C44.7102 33.6525 44.6963 33.6468 44.6827 33.6409C44.7469 33.5713 44.8345 33.4972 44.9444 33.4163C45.3411 33.1242 45.5256 33.1168 47.4718 33.3186L49.5704 33.5364L52.005 32.1145C53.3417 31.3338 54.4651 30.5941 54.504 30.469C54.5795 30.2 52.1385 27.6895 50.1817 26.0247C49.4136 25.3712 48.7848 24.7593 48.7843 24.6643C48.7847 24.5696 49.1433 24.294 49.5811 24.052C50.0191 23.81 50.4754 23.6139 50.5948 23.6165Z" fill="#F66F4D"/>
<path d="M96.5625 46.0625L86.9062 25.0625H92L97.625 38.9062L103.281 25.0625H108.375L98.7188 46.0625H96.5625ZM113.029 27.375C112.279 27.375 111.633 27.1042 111.091 26.5625C110.55 26.0208 110.279 25.3958 110.279 24.6875C110.279 23.9375 110.55 23.3021 111.091 22.7812C111.633 22.2604 112.279 22 113.029 22C113.529 22 113.987 22.125 114.404 22.375C114.82 22.6042 115.154 22.9271 115.404 23.3438C115.654 23.7396 115.779 24.1875 115.779 24.6875C115.779 25.1458 115.654 25.5833 115.404 26C115.154 26.4167 114.82 26.75 114.404 27C113.987 27.25 113.529 27.375 113.029 27.375ZM111.435 46V30.2188H115.404V46H111.435ZM108.904 33.5938V30.2188H115.404V33.5938H108.904ZM123.182 46.4688C122.474 46.4688 121.776 46.3854 121.089 46.2188C120.401 46.0729 119.766 45.875 119.182 45.625C118.62 45.375 118.162 45.125 117.807 44.875V41.4062C118.203 41.6771 118.682 41.9375 119.245 42.1875C119.807 42.4375 120.391 42.6458 120.995 42.8125C121.599 42.9583 122.151 43.0312 122.651 43.0312C123.443 43.0312 124.047 42.8854 124.464 42.5938C124.901 42.3021 125.12 41.9062 125.12 41.4062C125.12 41.0104 124.943 40.6979 124.589 40.4688C124.235 40.2396 123.714 40.0104 123.026 39.7812L121.089 39.0938C119.901 38.6979 119.068 38.1354 118.589 37.4062C118.13 36.6771 117.901 35.8125 117.901 34.8125C117.901 33.8125 118.151 32.9479 118.651 32.2188C119.172 31.4688 119.891 30.8854 120.807 30.4688C121.745 30.0312 122.797 29.8125 123.964 29.8125C124.943 29.8125 125.849 29.9583 126.682 30.25C127.537 30.5208 128.182 30.8542 128.62 31.25V34.75C128.141 34.4167 127.537 34.0938 126.807 33.7812C126.099 33.4688 125.349 33.3125 124.557 33.3125C123.807 33.3125 123.214 33.4792 122.776 33.8125C122.339 34.1458 122.12 34.5417 122.12 35C122.12 35.3333 122.245 35.6458 122.495 35.9375C122.766 36.2083 123.245 36.4479 123.932 36.6562L125.714 37.25C126.943 37.6042 127.849 38.1354 128.432 38.8438C129.016 39.5312 129.307 40.3854 129.307 41.4062C129.307 42.3646 129.026 43.2292 128.464 44C127.922 44.7708 127.182 45.375 126.245 45.8125C125.328 46.25 124.307 46.4688 123.182 46.4688ZM137.211 46.4688C135.961 46.4688 134.795 46.1458 133.711 45.5C132.649 44.8542 131.784 43.9167 131.118 42.6875C130.472 41.4583 130.149 39.9688 130.149 38.2188C130.149 36.4479 130.472 34.9375 131.118 33.6875C131.784 32.4375 132.67 31.4792 133.774 30.8125C134.899 30.1458 136.138 29.8125 137.493 29.8125C138.368 29.8125 139.232 30.0104 140.086 30.4062C140.961 30.8021 141.69 31.3333 142.274 32V30.2188H146.243V46H142.274V43.3438C141.815 44.1979 141.149 44.9375 140.274 45.5625C139.399 46.1667 138.378 46.4688 137.211 46.4688ZM138.211 42.5C138.92 42.5 139.576 42.3125 140.18 41.9375C140.805 41.5625 141.315 41.0312 141.711 40.3438C142.107 39.6562 142.295 38.8438 142.274 37.9062V35.6562C141.711 35.0521 141.097 34.5729 140.43 34.2188C139.784 33.8646 139.076 33.6875 138.305 33.6875C137.472 33.6875 136.753 33.9062 136.149 34.3438C135.565 34.7604 135.107 35.3125 134.774 36C134.44 36.6875 134.274 37.4271 134.274 38.2188C134.274 38.9896 134.44 39.7083 134.774 40.375C135.107 41.0208 135.565 41.5417 136.149 41.9375C136.753 42.3125 137.44 42.5 138.211 42.5ZM153.99 46.4688C153.282 46.4688 152.584 46.3854 151.896 46.2188C151.209 46.0729 150.573 45.875 149.99 45.625C149.427 45.375 148.969 45.125 148.615 44.875V41.4062C149.011 41.6771 149.49 41.9375 150.052 42.1875C150.615 42.4375 151.198 42.6458 151.802 42.8125C152.407 42.9583 152.959 43.0312 153.459 43.0312C154.25 43.0312 154.855 42.8854 155.271 42.5938C155.709 42.3021 155.927 41.9062 155.927 41.4062C155.927 41.0104 155.75 40.6979 155.396 40.4688C155.042 40.2396 154.521 40.0104 153.834 39.7812L151.896 39.0938C150.709 38.6979 149.875 38.1354 149.396 37.4062C148.938 36.6771 148.709 35.8125 148.709 34.8125C148.709 33.8125 148.959 32.9479 149.459 32.2188C149.98 31.4688 150.698 30.8854 151.615 30.4688C152.552 30.0312 153.605 29.8125 154.771 29.8125C155.75 29.8125 156.657 29.9583 157.49 30.25C158.344 30.5208 158.99 30.8542 159.427 31.25V34.75C158.948 34.4167 158.344 34.0938 157.615 33.7812C156.907 33.4688 156.157 33.3125 155.365 33.3125C154.615 33.3125 154.021 33.4792 153.584 33.8125C153.146 34.1458 152.927 34.5417 152.927 35C152.927 35.3333 153.052 35.6458 153.302 35.9375C153.573 36.2083 154.052 36.4479 154.74 36.6562L156.521 37.25C157.75 37.6042 158.657 38.1354 159.24 38.8438C159.823 39.5312 160.115 40.3854 160.115 41.4062C160.115 42.3646 159.834 43.2292 159.271 44C158.73 44.7708 157.99 45.375 157.052 45.8125C156.136 46.25 155.115 46.4688 153.99 46.4688ZM162.05 46V23.5H166.019V46H162.05ZM176.766 46.4688C175.62 46.4688 174.537 46.2604 173.516 45.8438C172.516 45.4062 171.62 44.8125 170.829 44.0625C170.037 43.3125 169.423 42.4375 168.985 41.4375C168.548 40.4167 168.329 39.3229 168.329 38.1562C168.329 36.9896 168.548 35.9062 168.985 34.9062C169.423 33.8854 170.037 33 170.829 32.25C171.62 31.4792 172.516 30.8854 173.516 30.4688C174.537 30.0312 175.62 29.8125 176.766 29.8125C177.912 29.8125 178.995 30.0312 180.016 30.4688C181.037 30.8854 181.933 31.4792 182.704 32.25C183.495 33 184.11 33.8854 184.548 34.9062C185.006 35.9062 185.235 36.9896 185.235 38.1562C185.235 39.3229 185.006 40.4167 184.548 41.4375C184.11 42.4375 183.495 43.3125 182.704 44.0625C181.933 44.8125 181.037 45.4062 180.016 45.8438C178.995 46.2604 177.912 46.4688 176.766 46.4688ZM176.766 42.625C177.537 42.625 178.235 42.4583 178.86 42.125C179.506 41.7708 180.027 41.2604 180.423 40.5938C180.818 39.9062 181.016 39.0938 181.016 38.1562C181.016 37.1771 180.818 36.3542 180.423 35.6875C180.027 35.0208 179.506 34.5208 178.86 34.1875C178.235 33.8333 177.537 33.6562 176.766 33.6562C176.037 33.6562 175.339 33.8333 174.673 34.1875C174.027 34.5208 173.506 35.0208 173.11 35.6875C172.735 36.3542 172.548 37.1771 172.548 38.1562C172.548 39.0938 172.735 39.9062 173.11 40.5938C173.506 41.2604 174.027 41.7708 174.673 42.125C175.339 42.4583 176.037 42.625 176.766 42.625ZM193.451 46.4688C192.514 46.4688 191.66 46.2604 190.889 45.8438C190.139 45.4271 189.545 44.8438 189.107 44.0938C188.67 43.3229 188.451 42.4167 188.451 41.375V33.5312H185.826V31.5C186.847 31.1458 187.68 30.4896 188.326 29.5312C188.993 28.5729 189.576 27.375 190.076 25.9375H192.42V30.2188H197.17V33.5312H192.42V40.3438C192.42 41.0521 192.597 41.6146 192.951 42.0312C193.326 42.4271 193.868 42.625 194.576 42.625C195.201 42.625 195.743 42.5312 196.201 42.3438C196.66 42.1562 197.066 41.9583 197.42 41.75V45.125C197.045 45.5208 196.514 45.8438 195.826 46.0938C195.16 46.3438 194.368 46.4688 193.451 46.4688ZM204.355 46.4688C203.647 46.4688 202.949 46.3854 202.261 46.2188C201.574 46.0729 200.938 45.875 200.355 45.625C199.792 45.375 199.334 45.125 198.98 44.875V41.4062C199.376 41.6771 199.855 41.9375 200.417 42.1875C200.98 42.4375 201.563 42.6458 202.167 42.8125C202.772 42.9583 203.324 43.0312 203.824 43.0312C204.615 43.0312 205.22 42.8854 205.636 42.5938C206.074 42.3021 206.292 41.9062 206.292 41.4062C206.292 41.0104 206.115 40.6979 205.761 40.4688C205.407 40.2396 204.886 40.0104 204.199 39.7812L202.261 39.0938C201.074 38.6979 200.24 38.1354 199.761 37.4062C199.303 36.6771 199.074 35.8125 199.074 34.8125C199.074 33.8125 199.324 32.9479 199.824 32.2188C200.345 31.4688 201.063 30.8854 201.98 30.4688C202.917 30.0312 203.97 29.8125 205.136 29.8125C206.115 29.8125 207.022 29.9583 207.855 30.25C208.709 30.5208 209.355 30.8542 209.792 31.25V34.75C209.313 34.4167 208.709 34.0938 207.98 33.7812C207.272 33.4688 206.522 33.3125 205.73 33.3125C204.98 33.3125 204.386 33.4792 203.949 33.8125C203.511 34.1458 203.292 34.5417 203.292 35C203.292 35.3333 203.417 35.6458 203.667 35.9375C203.938 36.2083 204.417 36.4479 205.105 36.6562L206.886 37.25C208.115 37.6042 209.022 38.1354 209.605 38.8438C210.188 39.5312 210.48 40.3854 210.48 41.4062C210.48 42.3646 210.199 43.2292 209.636 44C209.095 44.7708 208.355 45.375 207.417 45.8125C206.501 46.25 205.48 46.4688 204.355 46.4688Z" fill="#034833"/>
</svg>
