<svg width="45" height="44" viewBox="0 0 45 44" fill="none" xmlns="http://www.w3.org/2000/svg">
<rect x="0.5" width="44" height="44" rx="12.2222" fill="white"/>
<path d="M9.06455 23.1751C10.0527 22.8087 11.1242 22.727 12.1563 22.9397C13.1884 23.1525 14.1402 23.6509 14.9034 24.3782C15.2108 24.6711 15.4807 24.998 15.713 25.3489C16.3415 24.5963 17.154 24.0177 18.0753 23.676C19.0635 23.3097 20.1349 23.228 21.1671 23.4407C22.1991 23.6534 23.1509 24.152 23.9142 24.8792C24.5582 25.493 25.044 26.2503 25.339 27.0852H25.6671C26.6632 27.0853 27.6183 27.4817 28.3224 28.1868C29.0264 28.8919 29.4218 29.8482 29.422 30.845C29.4219 31.8419 29.0265 32.799 28.3224 33.5042C27.6183 34.2091 26.6631 34.6056 25.6671 34.6057H20.0352C19.1571 34.6064 18.1194 34.612 17.1749 34.0667C17.0041 34.0905 16.8308 34.1038 16.6563 34.1038H11.0245C9.97099 34.1045 8.93833 33.8097 8.04404 33.2522C7.14958 32.6945 6.42921 31.8964 5.96494 30.9495C5.50069 30.0025 5.3108 28.9442 5.41708 27.8948C5.52341 26.8453 5.92175 25.8463 6.5665 25.012C7.21117 24.1779 8.07666 23.5415 9.06455 23.1751ZM20.9142 24.6682C20.112 24.5029 19.2789 24.5661 18.5108 24.8508C17.743 25.1356 17.0698 25.6308 16.5685 26.2796C16.4941 26.3757 16.3963 26.4423 16.2901 26.4817C16.3029 26.5158 16.3161 26.5498 16.3282 26.5842H16.6563C17.6525 26.5843 18.6075 26.9806 19.3116 27.6858C20.0158 28.391 20.4112 29.3471 20.4112 30.344C20.4112 31.3409 20.0157 32.297 19.3116 33.0022C19.1993 33.1147 19.0794 33.2183 18.9552 33.3147C19.2793 33.3462 19.6352 33.3521 20.0343 33.3518H25.6671C26.3301 33.3517 26.9664 33.0882 27.4356 32.6184C27.9049 32.1484 28.169 31.5101 28.169 30.845C28.1689 30.18 27.9048 29.5425 27.4356 29.0725C26.9664 28.6026 26.3302 28.3392 25.6671 28.3391H24.878C24.5924 28.3389 24.3429 28.145 24.2716 27.8684C24.0667 27.0738 23.6433 26.3529 23.0499 25.7874C22.4564 25.2218 21.7163 24.8336 20.9142 24.6682ZM20.5948 10.6165C20.7155 10.6197 21.3645 10.8991 22.0382 11.2376C23.1925 11.8178 23.3109 11.8416 24.0479 11.6438C24.7386 11.4585 24.8643 11.4711 25.1153 11.7503C25.2716 11.9242 25.4003 12.2467 25.4005 12.4671C25.4005 12.9113 25.5441 12.9471 26.3448 12.6995C27.1398 12.4538 27.5202 12.6491 27.6632 13.3762C27.7671 13.9044 27.9591 14.1023 28.7374 14.4846C29.2587 14.7406 29.7926 14.9503 29.9239 14.9504C30.0565 14.9497 31.061 14.4776 32.1563 13.9006C34.43 12.7028 35.2243 12.4029 36.752 12.1672C38.092 11.9607 39.3993 12.2031 39.5909 12.6936C39.6637 12.8798 39.5388 13.3664 39.3136 13.7747C38.6094 15.0499 37.3422 16.0132 34.7061 17.2786L32.2286 18.468L32.2315 19.4426C32.2341 20.3645 32.2748 20.4391 32.9786 20.8098C33.8985 21.2945 33.9118 21.5595 33.045 22.1526L32.3663 22.6165L33.045 23.0481C33.8696 23.5729 33.894 23.8404 33.1602 24.3098C32.6144 24.659 32.6016 24.7094 32.7413 25.9641L32.8858 27.259L32.0079 27.6233C31.5252 27.8235 30.9897 27.9631 30.8185 27.9338C30.6285 27.9 30.1447 26.9978 29.5792 25.6243C28.6202 23.2947 27.3635 20.8482 27.1319 20.8587C27.0575 20.8636 25.751 21.3908 24.2267 22.0305L22.5362 22.7385C21.5636 22.4536 20.5377 22.3784 19.5274 22.5217C18.8783 22.6139 18.2476 22.7952 17.6534 23.0569C16.91 22.0099 15.8991 21.1796 14.7237 20.6585C14.7102 20.6525 14.6963 20.6468 14.6827 20.6409C14.7469 20.5713 14.8345 20.4972 14.9444 20.4163C15.3411 20.1242 15.5256 20.1168 17.4718 20.3186L19.5704 20.5364L22.005 19.1145C23.3417 18.3338 24.4651 17.5941 24.504 17.469C24.5795 17.2 22.1385 14.6895 20.1817 13.0247C19.4136 12.3712 18.7848 11.7593 18.7843 11.6643C18.7847 11.5696 19.1433 11.294 19.5811 11.052C20.0191 10.81 20.4754 10.6139 20.5948 10.6165Z" fill="#F66F4D"/>
</svg>
