<svg width="44" height="44" viewBox="0 0 44 44" fill="none" xmlns="http://www.w3.org/2000/svg">
<path d="M8.56455 23.1751C9.55271 22.8087 10.6242 22.727 11.6563 22.9397C12.6884 23.1525 13.6402 23.651 14.4034 24.3782C14.7108 24.6711 14.9807 24.9981 15.213 25.3489C15.8416 24.5963 16.654 24.0177 17.5753 23.6761C18.5635 23.3097 19.635 23.228 20.6671 23.4407C21.6991 23.6534 22.651 24.152 23.4142 24.8792C24.0582 25.4929 24.544 26.2504 24.839 27.0852H25.1671C26.1631 27.0853 27.1183 27.4818 27.8224 28.1868C28.5264 28.8919 28.9218 29.8482 28.922 30.845C28.922 31.8419 28.5265 32.7989 27.8224 33.5042C27.1183 34.2092 26.1631 34.6056 25.1671 34.6057H19.5352C18.6571 34.6064 17.6194 34.612 16.6749 34.0667C16.504 34.0905 16.3308 34.1038 16.1563 34.1038H10.5245C9.47099 34.1045 8.43833 33.8097 7.54404 33.2522C6.64962 32.6945 5.92919 31.8964 5.46494 30.9495C5.00072 30.0026 4.81077 28.9442 4.91708 27.8948C5.02343 26.8453 5.4217 25.8463 6.0665 25.012C6.71119 24.1779 7.57662 23.5415 8.56455 23.1751ZM20.4142 24.6682C19.612 24.5029 18.7789 24.5661 18.0108 24.8509C17.2429 25.1356 16.5699 25.6308 16.0685 26.2796C15.9941 26.3758 15.8964 26.4423 15.7901 26.4817C15.8029 26.5158 15.8161 26.5499 15.8282 26.5843H16.1563C17.1525 26.5843 18.1075 26.9807 18.8116 27.6858C19.5157 28.391 19.9112 29.3471 19.9112 30.344C19.9112 31.3409 19.5157 32.297 18.8116 33.0022C18.6992 33.1148 18.5795 33.2183 18.4552 33.3147C18.7793 33.3463 19.1352 33.3521 19.5343 33.3518H25.1671C25.8302 33.3517 26.4664 33.0883 26.9356 32.6184C27.405 32.1484 27.669 31.5101 27.669 30.845C27.6689 30.1801 27.4048 29.5424 26.9356 29.0725C26.4664 28.6027 25.8302 28.3392 25.1671 28.3391H24.378C24.0924 28.3389 23.8429 28.1451 23.7716 27.8684C23.5667 27.0739 23.1432 26.3529 22.5499 25.7874C21.9564 25.2219 21.2163 24.8336 20.4142 24.6682ZM20.0948 10.6165C20.2155 10.6198 20.8645 10.8991 21.5382 11.2376C22.6925 11.8178 22.8109 11.8417 23.5479 11.6438C24.2386 11.4585 24.3643 11.4711 24.6153 11.7503C24.7716 11.9242 24.9003 12.2467 24.9005 12.4671C24.9005 12.9114 25.0441 12.9471 25.8448 12.6995C26.6398 12.4538 27.0202 12.6492 27.1632 13.3762C27.2671 13.9044 27.4591 14.1023 28.2374 14.4846C28.7587 14.7407 29.2926 14.9503 29.4239 14.9505C29.5565 14.9497 30.561 14.4776 31.6563 13.9007C33.93 12.7028 34.7243 12.4029 36.252 12.1673C37.592 11.9607 38.8993 12.2032 39.0909 12.6936C39.1637 12.8798 39.0388 13.3664 38.8136 13.7747C38.1094 15.0499 36.8422 16.0133 34.2061 17.2786L31.7286 18.468L31.7315 19.4427C31.7341 20.3645 31.7748 20.4391 32.4786 20.8098C33.3985 21.2945 33.4118 21.5595 32.545 22.1526L31.8663 22.6165L32.545 23.0481C33.3696 23.5729 33.394 23.8404 32.6602 24.3098C32.1144 24.659 32.1016 24.7095 32.2413 25.9641L32.3858 27.2591L31.5079 27.6233C31.0252 27.8235 30.4897 27.9632 30.3185 27.9339C30.1285 27.9001 29.6447 26.9978 29.0792 25.6243C28.1202 23.2947 26.8635 20.8482 26.6319 20.8587C26.5576 20.8635 25.2511 21.3907 23.7267 22.0305L22.0362 22.7386C21.0637 22.4537 20.0376 22.3784 19.0274 22.5218C18.3783 22.6139 17.7476 22.7952 17.1534 23.0569C16.41 22.01 15.399 21.1806 14.2237 20.6594C14.21 20.6533 14.1955 20.6479 14.1817 20.6419C14.246 20.572 14.334 20.4976 14.4444 20.4163C14.8411 20.1243 15.0256 20.1169 16.9718 20.3186L19.0704 20.5364L21.505 19.1145C22.8417 18.3338 23.9651 17.5941 24.004 17.469C24.0794 17.1999 21.6384 14.6895 19.6817 13.0247C18.9136 12.3712 18.2848 11.7593 18.2843 11.6643C18.2848 11.5696 18.6433 11.294 19.0811 11.052C19.5191 10.81 19.9754 10.6139 20.0948 10.6165Z" fill="white"/>
</svg>
